<?xml version="1.0" encoding="UTF-8" standalone="no"?>
<svg width="21px" height="19px" viewBox="0 0 21 19" version="1.1" xmlns="http://www.w3.org/2000/svg" xmlns:xlink="http://www.w3.org/1999/xlink" xmlns:sketch="http://www.bohemiancoding.com/sketch/ns">
    <!-- Generator: Sketch 3.3.2 (12043) - http://www.bohemiancoding.com/sketch -->
    <title>tools-2-icon</title>
    <desc>Created with Sketch.</desc>
    <defs></defs>
    <g id="Account-Settings" stroke="none" stroke-width="1" fill="none" fill-rule="evenodd" sketch:type="MSPage">
        <g id="Desktop-HD" sketch:type="MSArtboardGroup" transform="translate(-352.000000, -154.000000)" fill="#797979">
            <g id="Account-Settings" sketch:type="MSLayerGroup" transform="translate(352.000000, 154.000000)">
                <path d="M18.6385857,15.5709865 L9.41448744,6.27484821 C8.97094838,5.82794764 8.74250562,5.20633669 8.79094112,4.57611738 C8.88252206,3.38224675 8.47547948,2.15687738 7.56942513,1.24380528 C6.39008394,0.0552659556 4.68576606,-0.281340119 3.20872615,0.233400121 L5.89034418,2.93593311 C5.95188347,3.99030934 4.33429327,5.62041792 3.28817395,5.55839866 L0.606604455,2.85591458 C0.0958478014,4.34442558 0.429800342,6.062085 1.60914153,7.25062432 C2.51514735,8.16374533 3.73108209,8.57386477 4.91571333,8.48156955 C5.54158921,8.43275629 6.15737032,8.66258947 6.60129764,9.10993024 L15.8254929,18.4060685 C16.6023051,19.1889883 17.8616764,19.1889883 18.6385857,18.4060685 C19.4153978,17.6231488 19.4153978,16.3538573 18.6385857,15.5709865 L18.6385857,15.5709865 Z M17.135047,17.6924069 C16.6823353,17.6924069 16.3151864,17.3225413 16.3151864,16.866152 C16.3151864,16.4099094 16.6822867,16.039946 17.135047,16.039946 C17.5878072,16.039946 17.9549075,16.4098605 17.9549075,16.866152 C17.9549075,17.3225413 17.5877587,17.6924069 17.135047,17.6924069 L17.135047,17.6924069 Z M11.3627785,6.184754 L16.1190664,1.39137002 C17.0916103,0.411191908 18.6684332,0.411191908 19.6409771,1.39137002 C20.6135211,2.37154812 20.6135211,3.96062031 19.6409771,4.9407495 L14.8846893,9.73413348 L14.0223627,8.86513027 L18.5627293,4.2893517 C18.7029398,4.1481454 18.7029398,3.91919262 18.5627293,3.7778885 C18.4226158,3.63673111 18.1954349,3.63673111 18.0552243,3.77793741 L13.5148578,8.35371598 L12.776629,7.60972949 L17.3168985,3.03390201 C17.457109,2.89269572 17.457109,2.66374294 17.3169955,2.52248773 C17.176882,2.38123252 16.9497011,2.38123252 16.8094906,2.52248773 L12.269124,7.09821739 L11.3627785,6.184754 L11.3627785,6.184754 Z M8.86403115,13.4438924 L5.35396234,16.9813865 C5.16366617,17.173118 5.00350873,17.3929244 4.87887711,17.6333223 L4.6266534,18.1199876 L2.87826796,19.0200005 L2.18653339,18.3228708 L3.04187121,16.5226984 L3.52472165,16.2685564 C3.76325917,16.1430505 3.98141303,15.9815461 4.17161213,15.7897658 L7.68172948,12.2523206 L8.86403115,13.4438924 L8.86403115,13.4438924 Z" id="tools-2-icon" sketch:type="MSShapeGroup"></path>
            </g>
        </g>
    </g>
</svg>