<?xml version="1.0" encoding="UTF-8" standalone="no"?>
<svg width="14px" height="14px" viewBox="0 0 14 14" version="1.1" xmlns="http://www.w3.org/2000/svg" xmlns:xlink="http://www.w3.org/1999/xlink" xmlns:sketch="http://www.bohemiancoding.com/sketch/ns">
    <!-- Generator: Sketch 3.3.2 (12043) - http://www.bohemiancoding.com/sketch -->
    <title>Fill 69</title>
    <desc>Created with Sketch.</desc>
    <defs></defs>
    <g id="Index" stroke="none" stroke-width="1" fill="none" fill-rule="evenodd" sketch:type="MSPage">
        <g id="Desktop-HD" sketch:type="MSArtboardGroup" transform="translate(-767.000000, -63.000000)" fill="#797979">
            <g id="Top-Nav" sketch:type="MSLayerGroup" transform="translate(352.000000, 60.000000)">
                <g id="Auth" sketch:type="MSShapeGroup">
                    <path d="M428,15 C427.448,15 427,15.448 427,16 C427,16.552 427.448,17 428,17 C428.552,17 429,16.552 429,16 C429,15.448 428.552,15 428,15 L428,15 Z M416,15 C415.448,15 415,15.448 415,16 C415,16.552 415.448,17 416,17 C416.552,17 417,16.552 417,16 C417,15.448 416.552,15 416,15 L416,15 Z M428,14 C428.174,14 428.3395,14.0295 428.5,14.071 L428.5,5.929 C428.3395,5.9705 428.174,6 428,6 C426.8955,6 426,5.1045 426,4 C426,3.826 426.029,3.6605 426.071,3.5 L417.929,3.5 C417.971,3.6605 418,3.826 418,4 C418,5.1045 417.1045,6 416,6 C415.826,6 415.6605,5.9705 415.5,5.929 L415.5,14.071 C415.6605,14.0295 415.826,14 416,14 C417.1045,14 418,14.8955 418,16 C418,16.174 417.971,16.3395 417.929,16.5 L426.071,16.5 C426.029,16.3395 426,16.174 426,16 C426,14.8955 426.8955,14 428,14 L428,14 Z M416,5 C416.552,5 417,4.552 417,4 C417,3.448 416.552,3 416,3 C415.448,3 415,3.448 415,4 C415,4.552 415.448,5 416,5 L416,5 Z M428,5 C428.552,5 429,4.552 429,4 C429,3.448 428.552,3 428,3 C427.448,3 427,3.448 427,4 C427,4.552 427.448,5 428,5 L428,5 Z" id="Fill-69"></path>
                </g>
            </g>
        </g>
    </g>
</svg>