<?xml version="1.0" encoding="UTF-8" standalone="no"?>
<svg width="13px" height="14px" viewBox="0 0 13 14" version="1.1" xmlns="http://www.w3.org/2000/svg" xmlns:xlink="http://www.w3.org/1999/xlink" xmlns:sketch="http://www.bohemiancoding.com/sketch/ns">
    <!-- Generator: Sketch 3.3.2 (12043) - http://www.bohemiancoding.com/sketch -->
    <title>Rectangle 6 Copy 4</title>
    <desc>Created with Sketch.</desc>
    <defs></defs>
    <g id="Account-Settings" stroke="none" stroke-width="1" fill="none" fill-rule="evenodd" sketch:type="MSPage">
        <g id="Desktop-HD" sketch:type="MSArtboardGroup" transform="translate(-167.000000, -195.000000)" fill="#B7B7B7">
            <g id="Filters" sketch:type="MSLayerGroup" transform="translate(66.000000, 154.000000)">
                <path d="M107.5,45.8786797 L103.968172,42.3468518 C103.375538,41.7542176 102.428932,41.7573593 101.843146,42.3431458 C101.253275,42.9330162 101.259019,43.8803389 101.846852,44.4681722 L105.37868,48 L101.846852,51.5318278 C101.259019,52.1196611 101.253275,53.0669838 101.843146,53.6568542 C102.428932,54.2426407 103.375538,54.2457824 103.968172,53.6531482 L107.5,50.1213203 L111.031828,53.6531482 C111.624462,54.2457824 112.571068,54.2426407 113.156854,53.6568542 C113.746725,53.0669838 113.740981,52.1196611 113.153148,51.5318278 L109.62132,48 L113.153148,44.4681722 C113.740981,43.8803389 113.746725,42.9330162 113.156854,42.3431458 C112.571068,41.7573593 111.624462,41.7542176 111.031828,42.3468518 L107.5,45.8786797 Z" id="Rectangle-6-Copy-4" sketch:type="MSShapeGroup"></path>
            </g>
        </g>
    </g>
</svg>