<?xml version="1.0" encoding="UTF-8" standalone="no"?>
<svg width="14px" height="23px" viewBox="0 0 14 23" version="1.1" xmlns="http://www.w3.org/2000/svg" xmlns:xlink="http://www.w3.org/1999/xlink" xmlns:sketch="http://www.bohemiancoding.com/sketch/ns">
    <!-- Generator: Sketch 3.3.2 (12043) - http://www.bohemiancoding.com/sketch -->
    <title>Fill 173</title>
    <desc>Created with Sketch.</desc>
    <defs></defs>
    <g id="Account-Settings" stroke="none" stroke-width="1" fill="none" fill-rule="evenodd" sketch:type="MSPage">
        <g id="Desktop-HD" sketch:type="MSArtboardGroup" transform="translate(-352.000000, -514.000000)" fill="#797979">
            <g id="Change-Password" sketch:type="MSLayerGroup" transform="translate(352.000000, 514.000000)">
                <path d="M11.2,9.8098 C10.0289,8.9285 8.5785,8.4 7,8.4 C5.4222,8.4 3.9711,8.9285 2.8,9.8098 L2.8,5.6 C2.8,3.2809 4.6809,1.4 7,1.4 C9.3191,1.4 11.2,3.2809 11.2,5.6 L11.2,9.8098 L11.2,9.8098 Z M7.7,17.5 C7.7,17.8871 7.3871,18.2 7,18.2 C6.6129,18.2 6.3,17.8871 6.3,17.5 L6.3,14.7 C6.3,14.3136 6.6129,14 7,14 C7.3871,14 7.7,14.3136 7.7,14.7 L7.7,17.5 L7.7,17.5 Z M12.6,11.2133 L12.6,5.6 C12.6,2.5074 10.0926,0 7,0 C3.9074,0 1.4,2.5074 1.4,5.6 L1.4,11.2133 C0.525,12.3816 0,13.8278 0,15.4 C0,19.2661 3.1346,22.4 7,22.4 C10.8654,22.4 14,19.2661 14,15.4 C14,13.8278 13.475,12.3816 12.6,11.2133 L12.6,11.2133 Z" id="Fill-173" sketch:type="MSShapeGroup"></path>
            </g>
        </g>
    </g>
</svg>