<?xml version="1.0" encoding="UTF-8" standalone="no"?>
<svg width="11px" height="16px" viewBox="0 0 11 16" version="1.1" xmlns="http://www.w3.org/2000/svg" xmlns:xlink="http://www.w3.org/1999/xlink" xmlns:sketch="http://www.bohemiancoding.com/sketch/ns">
    <!-- Generator: Sketch 3.3.2 (12043) - http://www.bohemiancoding.com/sketch -->
    <title>Slice 1</title>
    <desc>Created with Sketch.</desc>
    <defs></defs>
    <g id="Page-1" stroke="none" stroke-width="1" fill="none" fill-rule="evenodd" sketch:type="MSPage">
        <path d="M5.5,10 C7.9855,10 10,7.761 10,5 C10,2.239 7.9855,0 5.5,0 C3.0145,0 1,2.239 1,5 C1,7.761 3.0145,10 5.5,10 L5.5,10 Z M9.8515,8.6595 C8.8455,10.0805 7.273,11 5.5,11 C3.727,11 2.1545,10.0805 1.1485,8.6595 C0.452,9.2055 0,10.0455 0,11 L0,13 C0,14.6565 1.3435,16 3,16 L8,16 C9.6565,16 11,14.6565 11,13 L11,11 C11,10.0455 10.548,9.2055 9.8515,8.6595 L9.8515,8.6595 Z" id="Fill-176" fill="#797979" sketch:type="MSShapeGroup"></path>
    </g>
</svg>