<?xml version="1.0" encoding="UTF-8" standalone="no"?>
<svg width="17px" height="18px" viewBox="0 0 17 18" version="1.1" xmlns="http://www.w3.org/2000/svg" xmlns:xlink="http://www.w3.org/1999/xlink" xmlns:sketch="http://www.bohemiancoding.com/sketch/ns">
    <!-- Generator: Sketch 3.3.2 (12043) - http://www.bohemiancoding.com/sketch -->
    <title>Fill 98</title>
    <desc>Created with Sketch.</desc>
    <defs></defs>
    <g id="Account-Settings" stroke="none" stroke-width="1" fill="none" fill-rule="evenodd" sketch:type="MSPage">
        <g id="Desktop-HD" sketch:type="MSArtboardGroup" transform="translate(-353.000000, -781.000000)" fill="#797979">
            <g id="Social-Media" sketch:type="MSLayerGroup" transform="translate(353.000000, 751.000000)">
                <path d="M13.4583333,41.0769231 C12.2045833,41.0769231 11.1102083,41.7173077 10.4805,42.6775385 L6.687375,40.5590769 C6.93245833,40.0883077 7.08333333,39.5635385 7.08333333,39 C7.08333333,38.6517692 7.014625,38.3222308 6.916875,38.0051538 L10.863,35.8015385 C11.5097083,36.4869231 12.429125,36.9230769 13.4583333,36.9230769 C15.41475,36.9230769 17,35.3736923 17,33.4615385 C17,31.5493846 15.41475,30 13.4583333,30 C11.5019167,30 9.91666667,31.5493846 9.91666667,33.4615385 C9.91666667,33.8097692 9.985375,34.1393077 10.083125,34.4570769 L6.137,36.66 C5.49029167,35.9753077 4.570875,35.5384615 3.54166667,35.5384615 C1.58525,35.5384615 0,37.0878462 0,39 C0,40.9121538 1.58525,42.4615385 3.54166667,42.4615385 C4.34916667,42.4615385 5.085125,42.1873846 5.68083333,41.7429231 L9.955625,44.1646154 C9.94145833,44.2892308 9.91666667,44.4096923 9.91666667,44.5384615 C9.91666667,46.4506154 11.5019167,48 13.4583333,48 C15.41475,48 17,46.4506154 17,44.5384615 C17,42.6263077 15.41475,41.0769231 13.4583333,41.0769231" id="Fill-98" sketch:type="MSShapeGroup"></path>
            </g>
        </g>
    </g>
</svg>