<?xml version="1.0" encoding="UTF-8" standalone="no"?>
<svg width="179px" height="63px" viewBox="0 0 179 63" version="1.1" xmlns="http://www.w3.org/2000/svg" xmlns:xlink="http://www.w3.org/1999/xlink" xmlns:sketch="http://www.bohemiancoding.com/sketch/ns">
    <!-- Generator: Sketch 3.3.2 (12043) - http://www.bohemiancoding.com/sketch -->
    <title>Slice 1</title>
    <desc>Created with Sketch.</desc>
    <defs></defs>
    <g id="Page-1" stroke="none" stroke-width="1" fill="none" fill-rule="evenodd" sketch:type="MSPage">
        <g id="Logo" sketch:type="MSLayerGroup" transform="translate(2.000000, 10.000000)" fill="#5019FB">
            <circle id="Oval-1" sketch:type="MSShapeGroup" cx="20" cy="4" r="4"></circle>
            <circle id="Oval-1-Copy" sketch:type="MSShapeGroup" cx="4" cy="4" r="4"></circle>
            <path d="M0.83125,17.96 C0.83125,14.159981 2.1479035,12.26 4.78125,12.26 C7.381263,12.26 8.68125,14.159981 8.68125,17.96 L8.68125,26.86 C8.68125,28.726676 8.95624725,30.1516618 9.50625,31.135 C10.0562528,32.1183383 11.131242,32.61 12.73125,32.61 C14.331258,32.61 15.4062473,32.1183383 15.95625,31.135 C16.5062528,30.1516618 16.78125,28.726676 16.78125,26.86 L16.78125,17.96 C16.78125,14.159981 18.0979035,12.26 20.73125,12.26 C22.0979235,12.26 23.0895803,12.726662 23.70625,13.66 C24.3229198,14.593338 24.63125,16.026657 24.63125,17.96 L24.63125,28.46 C24.63125,32.260019 23.6062603,35.1349903 21.55625,37.085 C19.5062398,39.0350098 16.5646025,40.01 12.73125,40.01 C8.8978975,40.01 5.95626025,39.0350098 3.90625,37.085 C1.85623975,35.1349903 0.83125,32.260019 0.83125,28.46 L0.83125,17.96 Z M37.48125,39.96 C36.014576,39.96 34.681256,39.8016683 33.48125,39.485 C32.281244,39.1683318 31.2562543,38.7516693 30.40625,38.235 C29.5562458,37.7183308 28.897919,37.1016703 28.43125,36.385 C27.964581,35.6683298 27.73125,34.910004 27.73125,34.11 C27.73125,33.109995 28.0229138,32.2683368 28.60625,31.585 C29.1895863,30.9016633 29.8979125,30.56 30.73125,30.56 C31.331253,30.56 31.9395803,30.6766655 32.55625,30.91 C33.1729198,31.1433345 33.781247,31.4099985 34.38125,31.71 C34.981253,32.0100015 35.5895803,32.2766655 36.20625,32.51 C36.8229198,32.7433345 37.431247,32.86 38.03125,32.86 C38.69792,32.86 39.231248,32.7016683 39.63125,32.385 C40.031252,32.0683318 40.23125,31.6933355 40.23125,31.26 C40.23125,30.6266635 39.8729203,30.1266685 39.15625,29.76 C38.4395798,29.3933315 37.3645905,28.9266695 35.93125,28.36 C34.731244,27.8599975 33.664588,27.3600025 32.73125,26.86 C31.797912,26.3599975 31.0145865,25.7933365 30.38125,25.16 C29.7479135,24.5266635 29.264585,23.8266705 28.93125,23.06 C28.597915,22.2933295 28.43125,21.376672 28.43125,20.31 C28.43125,19.1433275 28.6729143,18.0433385 29.15625,17.01 C29.6395858,15.9766615 30.314579,15.0766705 31.18125,14.31 C32.047921,13.5433295 33.081244,12.9350023 34.28125,12.485 C35.481256,12.0349978 36.814576,11.81 38.28125,11.81 C39.6479235,11.81 40.897911,11.9683318 42.03125,12.285 C43.164589,12.6016683 44.1395793,13.0183308 44.95625,13.535 C45.7729208,14.0516693 46.4062478,14.6349968 46.85625,15.285 C47.3062523,15.9350033 47.53125,16.6099965 47.53125,17.31 C47.53125,18.243338 47.2145865,19.0266635 46.58125,19.66 C45.9479135,20.2933365 45.1812545,20.61 44.28125,20.61 C43.814581,20.61 43.3229193,20.510001 42.80625,20.31 C42.2895808,20.109999 41.7562528,19.8933345 41.20625,19.66 C40.6562473,19.4266655 40.1062528,19.210001 39.55625,19.01 C39.0062473,18.809999 38.464586,18.71 37.93125,18.71 C37.3645805,18.71 36.9229183,18.843332 36.60625,19.11 C36.2895818,19.376668 36.13125,19.6933315 36.13125,20.06 C36.13125,20.4266685 36.2562488,20.7349988 36.50625,20.985 C36.7562513,21.2350013 37.1229143,21.4766655 37.60625,21.71 C38.0895858,21.9433345 38.66458,22.1766655 39.33125,22.41 C39.99792,22.6433345 40.7479125,22.9433315 41.58125,23.31 C43.781261,24.2766715 45.4229113,25.3433275 46.50625,26.51 C47.5895888,27.6766725 48.13125,29.159991 48.13125,30.96 C48.13125,32.226673 47.8729193,33.4016613 47.35625,34.485 C46.8395808,35.5683388 46.114588,36.5183293 45.18125,37.335 C44.247912,38.1516708 43.1229233,38.793331 41.80625,39.26 C40.4895768,39.726669 39.0479245,39.96 37.48125,39.96 L37.48125,39.96 Z M58.13125,28.11 C58.2979175,29.6100075 58.9229113,30.7683293 60.00625,31.585 C61.0895888,32.4016708 62.4812415,32.81 64.18125,32.81 C65.181255,32.81 66.0895793,32.676668 66.90625,32.41 C67.7229208,32.143332 68.46458,31.8516683 69.13125,31.535 C69.79792,31.2183318 70.4062473,30.926668 70.95625,30.66 C71.5062528,30.393332 72.014581,30.26 72.48125,30.26 C73.4479215,30.26 74.2145805,30.5433305 74.78125,31.11 C75.3479195,31.6766695 75.63125,32.4099955 75.63125,33.31 C75.63125,34.0766705 75.331253,34.8516628 74.73125,35.635 C74.131247,36.4183373 73.3062553,37.1266635 72.25625,37.76 C71.2062448,38.3933365 69.9562573,38.909998 68.50625,39.31 C67.0562428,39.710002 65.4812585,39.91 63.78125,39.91 C61.847907,39.91 60.047925,39.5600035 58.38125,38.86 C56.714575,38.1599965 55.2729228,37.1933395 54.05625,35.96 C52.8395773,34.7266605 51.8812535,33.2516753 51.18125,31.535 C50.4812465,29.8183248 50.13125,27.96001 50.13125,25.96 C50.13125,23.95999 50.46458,22.093342 51.13125,20.36 C51.79792,18.626658 52.7229108,17.1350063 53.90625,15.885 C55.0895893,14.6349938 56.4895753,13.6516703 58.10625,12.935 C59.7229248,12.2183298 61.4812405,11.86 63.38125,11.86 C65.2812595,11.86 67.0145755,12.2099965 68.58125,12.91 C70.1479245,13.6100035 71.497911,14.5516608 72.63125,15.735 C73.764589,16.9183393 74.6479135,18.3016588 75.28125,19.885 C75.9145865,21.4683413 76.23125,23.1433245 76.23125,24.91 C76.23125,25.57667 76.1562508,26.1183313 76.00625,26.535 C75.8562493,26.9516688 75.614585,27.2766655 75.28125,27.51 C74.947915,27.7433345 74.5395858,27.9016663 74.05625,27.985 C73.5729143,28.0683338 72.99792,28.11 72.33125,28.11 L58.13125,28.11 Z M68.53125,22.96 C68.4312495,21.559993 67.8895883,20.426671 66.90625,19.56 C65.9229118,18.693329 64.76459,18.26 63.43125,18.26 C62.09791,18.26 60.9479215,18.6766625 59.98125,19.51 C59.0145785,20.3433375 58.397918,21.493326 58.13125,22.96 L68.53125,22.96 Z M86.28125,25.81 C86.28125,27.81001 86.7645785,29.3849943 87.73125,30.535 C88.6979215,31.6850058 89.914576,32.26 91.38125,32.26 C92.847924,32.26 94.0562453,31.6766725 95.00625,30.51 C95.9562548,29.3433275 96.43125,27.7766765 96.43125,25.81 C96.43125,23.876657 95.9479215,22.343339 94.98125,21.21 C94.0145785,20.076661 92.8145905,19.51 91.38125,19.51 C89.9479095,19.51 88.7395883,20.0683278 87.75625,21.185 C86.7729118,22.3016723 86.28125,23.8433235 86.28125,25.81 L86.28125,25.81 Z M104.33125,33.81 C104.33125,37.6433525 103.031263,39.56 100.43125,39.56 C98.764575,39.56 97.5145875,38.6433425 96.68125,36.81 C95.0479085,38.81001 92.8479305,39.81 90.08125,39.81 C88.481242,39.81 86.9562573,39.47667 85.50625,38.81 C84.0562428,38.14333 82.7812555,37.1933395 81.68125,35.96 C80.5812445,34.7266605 79.7145865,33.2600085 79.08125,31.56 C78.4479135,29.8599915 78.13125,27.976677 78.13125,25.91 C78.13125,23.90999 78.4562468,22.0600085 79.10625,20.36 C79.7562533,18.6599915 80.6395778,17.1850063 81.75625,15.935 C82.8729223,14.6849938 84.1729093,13.7100035 85.65625,13.01 C87.1395908,12.3099965 88.714575,11.96 90.38125,11.96 C93.0145965,11.96 95.1145755,12.893324 96.68125,14.76 C97.614588,13.093325 98.8645755,12.26 100.43125,12.26 C101.797924,12.26 102.78958,12.726662 103.40625,13.66 C104.02292,14.593338 104.33125,16.026657 104.33125,17.96 L104.33125,33.81 Z M109.78125,6.81 C109.78125,2.9766475 111.097904,1.06 113.73125,1.06 C116.364597,1.06 117.68125,2.9766475 117.68125,6.81 L117.68125,14.01 C118.447921,13.34333 119.339578,12.8016688 120.35625,12.385 C121.372922,11.9683313 122.54791,11.76 123.88125,11.76 C125.514592,11.76 127.064576,12.1099965 128.53125,12.81 C129.997924,13.5100035 131.281245,14.4849938 132.38125,15.735 C133.481256,16.9850063 134.356247,18.476658 135.00625,20.21 C135.656253,21.943342 135.98125,23.843323 135.98125,25.91 C135.98125,27.843343 135.656253,29.6516583 135.00625,31.335 C134.356247,33.0183418 133.472922,34.4766605 132.35625,35.71 C131.239578,36.9433395 129.947924,37.9183298 128.48125,38.635 C127.014576,39.3516703 125.481258,39.71 123.88125,39.71 C121.21457,39.71 119.081258,38.810009 117.48125,37.01 C116.514579,38.7100085 115.264591,39.56 113.73125,39.56 C111.097904,39.56 109.78125,37.6433525 109.78125,33.81 L109.78125,6.81 Z M117.53125,25.76 C117.53125,27.826677 118.022912,29.4433275 119.00625,30.61 C119.989588,31.7766725 121.231243,32.36 122.73125,32.36 C124.231258,32.36 125.472912,31.760006 126.45625,30.56 C127.439588,29.359994 127.93125,27.76001 127.93125,25.76 C127.93125,23.693323 127.439588,22.060006 126.45625,20.86 C125.472912,19.659994 124.231258,19.06 122.73125,19.06 C121.231243,19.06 119.989588,19.6516608 119.00625,20.835 C118.022912,22.0183393 117.53125,23.6599895 117.53125,25.76 L117.53125,25.76 Z M140.13125,6.81 C140.13125,2.9766475 141.447903,1.06 144.08125,1.06 C146.681263,1.06 147.98125,2.9766475 147.98125,6.81 L147.98125,33.81 C147.98125,35.743343 147.67292,37.1849953 147.05625,38.135 C146.43958,39.0850048 145.447924,39.56 144.08125,39.56 C141.447903,39.56 140.13125,37.6433525 140.13125,33.81 L140.13125,6.81 Z M159.38125,36.91 L151.43125,18.36 C151.264583,17.9933315 151.147917,17.6183353 151.08125,17.235 C151.014583,16.8516648 150.98125,16.493335 150.98125,16.16 C150.98125,15.0599945 151.356246,14.1350038 152.10625,13.385 C152.856254,12.6349963 153.764578,12.26 154.83125,12.26 C155.931256,12.26 156.756247,12.5849968 157.30625,13.235 C157.856253,13.8850033 158.364581,14.8266605 158.83125,16.06 L163.28125,27.96 L168.13125,15.41 C168.564586,14.343328 169.047914,13.5516693 169.58125,13.035 C170.114586,12.5183308 170.781246,12.26 171.58125,12.26 C172.781256,12.26 173.731247,12.59333 174.43125,13.26 C175.131254,13.92667 175.48125,14.8433275 175.48125,16.01 C175.48125,16.7766705 175.264586,17.693328 174.83125,18.76 L162.83125,47.26 C162.397915,48.260005 161.931252,49.0433305 161.43125,49.61 C160.931247,50.1766695 160.247921,50.46 159.38125,50.46 C158.147911,50.46 157.189587,50.1183368 156.50625,49.435 C155.822913,48.7516633 155.48125,47.8266725 155.48125,46.66 C155.48125,45.7599955 155.697915,44.8600045 156.13125,43.96 L159.38125,36.91 Z" id="useably-copy" sketch:type="MSShapeGroup"></path>
        </g>
    </g>
</svg>